<mxfile host="Electron" modified="2023-06-23T13:50:21.706Z" agent="Mozilla/5.0 (Windows NT 10.0; Win64; x64) AppleWebKit/537.36 (KHTML, like Gecko) draw.io/21.5.0 Chrome/112.0.5615.204 Electron/24.5.1 Safari/537.36" etag="qZGuU-MgkQmKUR4n9R4f" version="21.5.0" type="device">
  <diagram name="Seite-1" id="OaDNMZehIXriT2xlF2Y9">
    <mxGraphModel dx="978" dy="1740" grid="1" gridSize="10" guides="1" tooltips="1" connect="1" arrows="1" fold="1" page="1" pageScale="1" pageWidth="827" pageHeight="1169" math="0" shadow="0">
      <root>
        <mxCell id="0" />
        <mxCell id="1" parent="0" />
        <mxCell id="rcY7aKM7Yt1TZBVSr95A-2" value="MeowMed System" style="rounded=0;whiteSpace=wrap;html=1;verticalAlign=top;" parent="1" vertex="1">
          <mxGeometry x="230" y="-1110" width="506" height="370" as="geometry" />
        </mxCell>
        <mxCell id="rcY7aKM7Yt1TZBVSr95A-3" value="MeowMed UI" style="rounded=0;whiteSpace=wrap;html=1;" parent="1" vertex="1">
          <mxGeometry x="286" y="-1060" width="402.5" height="30" as="geometry" />
        </mxCell>
        <mxCell id="rcY7aKM7Yt1TZBVSr95A-4" value="Notification Service" style="rounded=0;whiteSpace=wrap;html=1;" parent="1" vertex="1">
          <mxGeometry x="360" y="-820" width="70" height="30" as="geometry" />
        </mxCell>
        <mxCell id="rcY7aKM7Yt1TZBVSr95A-5" value="Customer Service" style="rounded=0;whiteSpace=wrap;html=1;" parent="1" vertex="1">
          <mxGeometry x="271" y="-925" width="70" height="60" as="geometry" />
        </mxCell>
        <mxCell id="rcY7aKM7Yt1TZBVSr95A-6" value="Policy Service" style="rounded=0;whiteSpace=wrap;html=1;" parent="1" vertex="1">
          <mxGeometry x="446" y="-925" width="70" height="60" as="geometry" />
        </mxCell>
        <mxCell id="rcY7aKM7Yt1TZBVSr95A-7" value="Billing Service" style="rounded=0;whiteSpace=wrap;html=1;" parent="1" vertex="1">
          <mxGeometry x="611" y="-930" width="90" height="70" as="geometry" />
        </mxCell>
        <mxCell id="rcY7aKM7Yt1TZBVSr95A-8" value="" style="shape=cylinder3;whiteSpace=wrap;html=1;boundedLbl=1;backgroundOutline=1;size=1.6543059172450398;" parent="1" vertex="1">
          <mxGeometry x="326" y="-880" width="10" height="10" as="geometry" />
        </mxCell>
        <mxCell id="rcY7aKM7Yt1TZBVSr95A-9" value="Kunden&lt;br&gt;anlegen, updaten, lesen" style="edgeStyle=orthogonalEdgeStyle;rounded=0;orthogonalLoop=1;jettySize=auto;html=1;entryX=0.5;entryY=0;entryDx=0;entryDy=0;" parent="1" target="rcY7aKM7Yt1TZBVSr95A-5" edge="1">
          <mxGeometry x="-0.0476" relative="1" as="geometry">
            <mxPoint x="306" y="-1030" as="sourcePoint" />
            <mxPoint x="81" y="-910" as="targetPoint" />
            <mxPoint as="offset" />
            <Array as="points">
              <mxPoint x="306" y="-1030" />
            </Array>
          </mxGeometry>
        </mxCell>
        <mxCell id="rcY7aKM7Yt1TZBVSr95A-10" value="VertrÃ¤ge&lt;br&gt;anlegen, updaten, lesen" style="edgeStyle=orthogonalEdgeStyle;rounded=0;orthogonalLoop=1;jettySize=auto;html=1;exitX=0.485;exitY=0.989;exitDx=0;exitDy=0;entryX=0.5;entryY=0;entryDx=0;entryDy=0;exitPerimeter=0;" parent="1" source="rcY7aKM7Yt1TZBVSr95A-3" target="rcY7aKM7Yt1TZBVSr95A-6" edge="1">
          <mxGeometry x="-0.2304" y="-1" relative="1" as="geometry">
            <mxPoint x="331" y="-980" as="sourcePoint" />
            <mxPoint x="316" y="-910" as="targetPoint" />
            <mxPoint as="offset" />
          </mxGeometry>
        </mxCell>
        <mxCell id="rcY7aKM7Yt1TZBVSr95A-11" value="Buchungsliste abfragen" style="edgeStyle=orthogonalEdgeStyle;rounded=0;orthogonalLoop=1;jettySize=auto;html=1;exitX=0.919;exitY=1.011;exitDx=0;exitDy=0;entryX=0.5;entryY=0;entryDx=0;entryDy=0;exitPerimeter=0;" parent="1" source="rcY7aKM7Yt1TZBVSr95A-3" target="rcY7aKM7Yt1TZBVSr95A-7" edge="1">
          <mxGeometry x="-0.012" relative="1" as="geometry">
            <mxPoint x="411" y="-1020" as="sourcePoint" />
            <mxPoint x="430" y="-910" as="targetPoint" />
            <mxPoint y="-1" as="offset" />
          </mxGeometry>
        </mxCell>
        <mxCell id="rcY7aKM7Yt1TZBVSr95A-12" value="Kundendaten" style="edgeStyle=orthogonalEdgeStyle;rounded=0;orthogonalLoop=1;jettySize=auto;html=1;exitX=0;exitY=0.5;exitDx=0;exitDy=0;entryX=1;entryY=0.5;entryDx=0;entryDy=0;" parent="1" source="rcY7aKM7Yt1TZBVSr95A-6" target="rcY7aKM7Yt1TZBVSr95A-5" edge="1">
          <mxGeometry x="-0.0476" y="-15" relative="1" as="geometry">
            <mxPoint x="547" y="-1020" as="sourcePoint" />
            <mxPoint x="666" y="-900" as="targetPoint" />
            <mxPoint as="offset" />
          </mxGeometry>
        </mxCell>
        <mxCell id="rcY7aKM7Yt1TZBVSr95A-13" value="Kundendaten" style="edgeStyle=orthogonalEdgeStyle;rounded=0;orthogonalLoop=1;jettySize=auto;html=1;" parent="1" target="rcY7aKM7Yt1TZBVSr95A-5" edge="1">
          <mxGeometry x="0.5001" y="-20" relative="1" as="geometry">
            <mxPoint x="360" y="-805" as="sourcePoint" />
            <mxPoint x="456" y="-885" as="targetPoint" />
            <mxPoint as="offset" />
            <Array as="points">
              <mxPoint x="320" y="-805" />
            </Array>
          </mxGeometry>
        </mxCell>
        <mxCell id="rcY7aKM7Yt1TZBVSr95A-14" value="Vertragsdaten" style="edgeStyle=orthogonalEdgeStyle;rounded=0;orthogonalLoop=1;jettySize=auto;html=1;exitX=1;exitY=0.5;exitDx=0;exitDy=0;entryX=0.5;entryY=1;entryDx=0;entryDy=0;" parent="1" source="rcY7aKM7Yt1TZBVSr95A-4" target="rcY7aKM7Yt1TZBVSr95A-6" edge="1">
          <mxGeometry x="0.5498" relative="1" as="geometry">
            <mxPoint x="351" y="-885" as="sourcePoint" />
            <mxPoint x="456" y="-885" as="targetPoint" />
            <mxPoint as="offset" />
          </mxGeometry>
        </mxCell>
        <mxCell id="rcY7aKM7Yt1TZBVSr95A-15" value="" style="shape=cylinder3;whiteSpace=wrap;html=1;boundedLbl=1;backgroundOutline=1;size=1.6543059172450398;" parent="1" vertex="1">
          <mxGeometry x="501" y="-880" width="10" height="10" as="geometry" />
        </mxCell>
        <mxCell id="rcY7aKM7Yt1TZBVSr95A-16" value="" style="shape=cylinder3;whiteSpace=wrap;html=1;boundedLbl=1;backgroundOutline=1;size=1.6543059172450398;" parent="1" vertex="1">
          <mxGeometry x="681" y="-880" width="10" height="10" as="geometry" />
        </mxCell>
        <mxCell id="rcY7aKM7Yt1TZBVSr95A-17" value="Vertragsdaten" style="edgeStyle=orthogonalEdgeStyle;rounded=0;orthogonalLoop=1;jettySize=auto;html=1;exitX=0;exitY=0.5;exitDx=0;exitDy=0;entryX=1;entryY=0.5;entryDx=0;entryDy=0;" parent="1" source="rcY7aKM7Yt1TZBVSr95A-7" target="rcY7aKM7Yt1TZBVSr95A-6" edge="1">
          <mxGeometry x="0.0476" y="-15" relative="1" as="geometry">
            <mxPoint x="491" y="-855" as="sourcePoint" />
            <mxPoint x="146" y="-870" as="targetPoint" />
            <mxPoint as="offset" />
            <Array as="points">
              <mxPoint x="571" y="-895" />
              <mxPoint x="571" y="-895" />
            </Array>
          </mxGeometry>
        </mxCell>
        <mxCell id="rcY7aKM7Yt1TZBVSr95A-18" value="Kundendaten" style="edgeStyle=orthogonalEdgeStyle;rounded=0;orthogonalLoop=1;jettySize=auto;html=1;exitX=0.5;exitY=1;exitDx=0;exitDy=0;" parent="1" source="rcY7aKM7Yt1TZBVSr95A-7" edge="1">
          <mxGeometry x="0.0018" relative="1" as="geometry">
            <mxPoint x="456" y="-885" as="sourcePoint" />
            <mxPoint x="290" y="-865" as="targetPoint" />
            <mxPoint as="offset" />
            <Array as="points">
              <mxPoint x="656" y="-770" />
              <mxPoint x="290" y="-770" />
            </Array>
          </mxGeometry>
        </mxCell>
      </root>
    </mxGraphModel>
  </diagram>
</mxfile>
